# xmcd
#
# Track frame offsets:
#	150
#	15348
#	26797
#	35240
#	52047
#	68409
#	81510
#	92600
#	106461
#	119036
#	133561
#	147694
#	158796
#	168728
#	184226
#
# Disc length: 2545 seconds
#
# Revision: 0
# Processed by: cddbd v1.5.2PL0 Copyright (c) Steve Scherf et al.
# Submitted via: audiograbber 1.83.01
#
DISCID=db09ef0f
DTITLE=Doug Sahm - Juke Box Music
DYEAR=2009
DGENRE=Blues
TTITLE0=I Won't Cry
TTITLE1=Money Over Love
TTITLE2=Crazy Baby
TTITLE3=You're Mine Tonight
TTITLE4=Hey Little Girl
TTITLE5=It Hurts To Love Somebody
TTITLE6=Buzz, Buzz, Buzz
TTITLE7=My Dearest Darling
TTITLE8=She Put The Hurt On Me
TTITLE9=What's Your Name
TTITLE10=I Don't Believe
TTITLE11=Golly Gee
TTITLE12=The Chicken And The Bop
TTITLE13=Talk To Me
TTITLE14=Goodnight My Love
EXTD=
EXTT0=
EXTT1=
EXTT2=
EXTT3=
EXTT4=
EXTT5=
EXTT6=
EXTT7=
EXTT8=
EXTT9=
EXTT10=
EXTT11=
EXTT12=
EXTT13=
EXTT14=
PLAYORDER=
